PathFileType	4	(X/Y/Z)	Patient4_TMGait_0pt4_02_left_06.trc.trc
DataRate	CameraRate	NumFrames	NumMarkers	Units	OrigDataRate	OrigDataStartFrame	OrigNumFrames
74.866310160428	74.866310160428	5	33	mm	74.866310160428	53	       141
Frame#	Time	Sacral			L.Shoulder			Chest			R.Shoulder			Neck			R.ASIS			L.ASIS			R.Thigh.Superior			R.Thigh.Lateral			R.Thigh.Inferior			R.Patella			L.Thigh.Superior			L.Thigh.Lateral			L.Thigh.Inferior			L.Patella			L.Shank.Superior			L.Shank.Lateral			L.Shank.Inferior			R.Shank.Superior			R.Shank.Lateral			R.Shank.Inferior			R.Heel			R.Midfoot.Superior			R.Midfoot.Lateral			R.Toe			L.Heel			L.Midfoot.Lateral			L.Midfoot.Superior			L.Toe			L.Elbow			L.Wrist			R.Elbow			R.Wrist			
		X1	Y1	Z1	X2	Y2	Z2	X3	Y3	Z3	X4	Y4	Z4	X5	Y5	Z5	X6	Y6	Z6	X7	Y7	Z7	X8	Y8	Z8	X9	Y9	Z9	X10	Y10	Z10	X11	Y11	Z11	X12	Y12	Z12	X13	Y13	Z13	X14	Y14	Z14	X15	Y15	Z15	X16	Y16	Z16	X17	Y17	Z17	X18	Y18	Z18	X19	Y19	Z19	X20	Y20	Z20	X21	Y21	Z21	X22	Y22	Z22	X23	Y23	Z23	X24	Y24	Z24	X25	Y25	Z25	X26	Y26	Z26	X27	Y27	Z27	X28	Y28	Z28	X29	Y29	Z29	X30	Y30	Z30	X31	Y31	Z31	X32	Y32	Z32	X33	Y33	Z33	

53	8.754571428571	843.748605399983	1003.797001934134	427.320713351363	1019.829212714291	1438.008849644607	238.541183943922	1122.840886356342	1369.735683222679	399.608967788064	1037.692349562075	1440.020339632149	574.330535808126	1003.452930610679	1498.210034828321	395.028679211800	1078.682627093119	947.773868878263	536.054571919780	1054.725115374429	966.265877405788	262.528491625281	1162.461227063649	775.869758259510	507.490360698820	1124.288990539490	656.569745800573	587.598798217621	1213.304503943470	616.061282003440	508.906261453179	1232.937263668646	505.066961861120	534.340240982496	1104.637255070193	750.812720701317	290.287893503837	1011.398982605205	635.120228485275	237.583055646452	1096.107684232759	556.942220566274	298.393738729510	1094.681538874210	487.962313874224	310.557038480865	1066.363489828912	415.917115554138	304.716030427290	972.893723996899	302.993828396651	257.533941203709	1020.578505381497	191.762973557972	330.908584540418	1157.294342498887	429.350708009035	546.325383520021	1037.550684879157	392.622221048239	612.187714017054	1021.299086961633	281.714042896516	568.099531347790	822.049460785539	231.220366048453	549.142700873997	984.202782739221	153.869538070442	583.702783554395	876.361796812670	164.756249211256	620.383885005876	1037.042938165220	33.716238426193	607.703719529791	890.453718605195	38.895935292677	380.498561965032	960.785619816192	35.169410653864	296.652783594157	1045.094849304795	96.164166545852	319.754315038842	1172.792345697996	43.083195565433	286.222416981843	1036.867741940286	1097.163754300551	92.835690128524	1234.463470507347	924.244202718528	80.738260778824	953.334260186288	1102.283755527032	690.052583799876	979.906139364930	842.751753597029	704.841474261215	
54	8.767928571429	842.956410199765	1004.442296168482	425.317312877091	1022.739652557613	1438.635290176873	238.146190144301	1123.205109248821	1369.937000688840	400.567452890685	1035.807038243360	1440.472543001582	574.079930867342	1004.311131582664	1498.694728711079	394.613438656539	1076.940399433305	948.761695864492	536.077752731290	1054.923960425369	966.375397538544	262.456466487607	1162.409469344246	778.777881481208	507.306252272178	1125.826284994284	659.125696008329	587.804868291451	1215.120556995147	619.506199735963	509.077297690405	1236.600202731759	509.291040269568	534.822773059339	1102.945642313090	750.130710839064	290.330569544595	1008.654971870360	635.245622590400	237.215760720686	1092.384252638436	556.314308773392	298.305320419695	1090.268319430518	487.500289340881	310.518172720278	1061.824029124679	415.712553991977	304.516022604511	968.058960604053	303.054072893923	257.112308823230	1015.304046741321	191.680236674462	330.650972055385	1162.988967424179	431.844296795925	546.841775065504	1044.640658824369	391.168126081427	612.728159782796	1032.041305265864	279.731996740645	568.667994099119	834.493212540750	221.503162325255	549.959524485806	999.454920275230	150.948262520288	583.872060517836	891.595482828349	157.459446671566	621.113202839270	1057.409722584668	33.562772869632	608.241204205868	885.010860145094	38.954922658373	380.385237630596	955.391886536972	35.139635638007	296.540884449550	1039.720753229124	96.113565631267	319.610505069648	1167.440469101814	42.955643341546	286.190951935454	1042.410720907587	1098.893383491138	90.889537921428	1244.960763858487	931.788065887045	80.499442859021	941.806652373910	1105.623750448040	689.162061738099	961.423595686967	845.688453051612	705.645752612446	
55	8.781285714286	842.155743351640	1005.125310836159	423.380496618482	1025.793409523012	1439.186514471750	237.870240771236	1123.656610976951	1370.076574475767	401.631581131149	1034.039353312223	1440.941575717621	573.878906187809	1005.260564415195	1499.139094909360	394.284784890777	1075.081129758159	949.712058694596	536.350617411312	1055.217061968579	966.443524764142	262.609168021724	1161.945928590347	781.348799823545	507.516675063299	1126.633550878395	661.383369123897	588.295582248254	1216.085137756899	622.460380066329	509.562974553203	1239.270199948146	513.308649961790	535.610454519690	1101.152247525010	749.444432916609	290.722826170277	1005.842443782841	635.403660377692	236.973424304279	1088.480321578512	555.706231547464	298.410029618234	1085.628114656622	487.072695300440	310.637049697001	1057.115480414278	415.554530921204	304.429969865571	963.135413540788	303.127610305833	256.795031030376	1009.998406775433	191.624427752459	330.460523373859	1168.187566386603	433.992349418291	547.632201372113	1051.795541112590	388.564396340271	613.641160131864	1043.580447678705	276.727086564995	569.506386017525	848.432907294045	209.534738262379	551.179078871697	1016.369441436750	146.981196024003	584.301804036972	908.704403898763	148.475988683245	622.254797270310	1080.148878410015	33.168673074989	609.045885556144	879.573266978858	39.008000595751	380.284376820015	949.999430608446	35.113533175673	296.445549155431	1034.350288837182	96.070532595626	319.492939643459	1162.085817455396	42.841148319161	286.166423822881	1047.868350528559	1100.513146508413	89.221009721713	1254.918351425867	939.026073257346	80.669333749640	931.284996598307	1109.018088782825	688.183560035160	944.361554037700	848.861166627494	706.139815974497	
56	8.794642857143	841.350337356917	1005.821610202813	421.521384637424	1028.948968287222	1439.625153645567	237.720911774050	1124.194862281948	1370.122341278302	402.787805278936	1032.428646128775	1441.385269627840	573.738117986256	1006.295761716110	1499.515139797439	394.045659821568	1073.121213513411	950.575370908384	536.865308340108	1055.639566472196	966.471481929500	262.964125972708	1161.053168513337	783.491199719576	508.104248020623	1126.664326614812	663.262922938528	589.054377001069	1216.149791648071	624.824329698133	510.346667585603	1240.879255397449	517.027691503703	536.665468515481	1099.277023363824	748.742378505547	291.432907114484	1002.991584499822	635.576880641593	236.843946498093	1084.437949850169	555.110730707707	298.687519345406	1080.816391615819	486.672412138141	310.893645618324	1052.285086587821	415.427572552497	304.447279834097	958.159568333157	303.203538831207	256.575700963682	1004.681977483466	191.583580715138	330.338130703921	1172.838117749747	435.783547587847	548.670378565691	1059.042695222309	384.931165240253	614.919217579290	1055.888861141319	272.903238821137	570.605281388277	864.015066745551	195.747988347876	552.771919416420	1034.872206274103	142.292811426146	585.030156539046	927.691484840878	138.242816436835	623.794741040787	1104.955228901960	32.768530672439	610.143837838836	874.145677456639	39.051392676187	380.196287455572	944.609320779422	35.089810261828	296.367003097603	1028.983348946122	96.034761676788	319.404354755106	1156.728931907760	42.739843986506	286.148878189769	1053.261408462106	1101.981698301699	87.828236057984	1264.352240556952	945.858561841490	81.234257858768	921.783767548045	1112.351133001779	687.156649024759	928.732668107791	852.114140178926	706.373040348367	
57	8.808000000000	840.551232279116	1006.509376211533	419.758107141423	1032.165959028415	1439.919982809653	237.706413942388	1124.818992814906	1370.048424294506	404.026597751303	1031.006950794679	1441.768462212909	573.671105117445	1007.410983598144	1499.799114785086	393.902263778221	1071.086917640965	951.306036503776	537.607713922752	1056.205331895292	966.454616808861	263.499816316427	1159.708894162102	785.113814397257	509.048646686786	1125.858910553862	664.691734921137	590.062805876082	1215.260459942026	626.508583344875	511.412114353341	1241.356555758786	520.360037926534	537.938271137995	1097.337132354900	748.013098011986	292.419774995110	1000.129578445338	635.749082506044	236.814687188992	1080.300225863626	554.519687032220	299.111917587529	1075.892568679257	486.292036529205	311.259752168118	1047.379874758857	415.316386392274	304.552509734871	953.162793130928	303.272757837849	256.442079223586	999.370443324347	191.546126245838	330.279410381164	1176.875203751837	437.225812784043	549.921862264719	1066.389198575795	380.432609236118	616.543207103550	1068.901978449558	268.510774245516	571.942857225372	881.337237266267	180.627100719638	554.693053952637	1054.849488943788	137.262738094646	586.074785007554	948.513397654763	127.236591312862	625.689893087295	1131.496395913587	32.673029491881	611.527397810634	868.731725592289	39.082242465106	380.120152767927	939.221683849997	35.066919341236	296.304070281679	1023.618729293357	96.004367255084	319.344609074047	1151.369707259913	42.650186294784	286.138006590829	1058.605861829793	1103.264246750758	86.713566853986	1273.278013771469	952.194577490997	82.179677169580	913.288675145514	1115.524781498098	686.121342983304	914.537987739265	855.314953527281	706.400408175355	
